<svg width="193" height="104" viewBox="0 0 193 104" fill="none" xmlns="http://www.w3.org/2000/svg">
<g filter="url(#filter0_d_1_539)">
<rect x="30" y="15" width="132.879" height="44.0001" rx="8" fill="#2E3A59"/>
<path d="M77.1969 26.4678C77.1969 27.3322 76.962 28.0217 76.4921 28.5259C75.9657 29.133 75.2703 29.4418 74.4244 29.4418C73.6068 29.4418 72.9207 29.133 72.3474 28.5156C71.7741 27.8982 71.4922 27.1264 71.4922 26.2209C71.4922 25.305 71.7741 24.5436 72.3474 23.9261C72.9207 23.3087 73.6068 23 74.4244 23C74.8286 23 75.2139 23.0823 75.5804 23.2573C75.947 23.4322 76.2383 23.6586 76.4639 23.9467L75.9658 24.4921C75.5898 24.0085 75.0823 23.7615 74.4244 23.7615C73.8324 23.7615 73.3154 23.9879 72.8831 24.4509C72.4508 24.9037 72.2346 25.5006 72.2346 26.2312C72.2346 26.9618 72.4508 27.5586 72.8831 28.0114C73.3154 28.4642 73.8324 28.7009 74.4244 28.7009C75.0541 28.7009 75.5804 28.4745 76.0033 28.0114C76.2759 27.713 76.4357 27.2911 76.4733 26.756H74.4244V26.0151H77.1593C77.1781 26.1694 77.1969 26.3238 77.1969 26.4678Z" fill="white" stroke="white" stroke-width="0.2" stroke-miterlimit="10"/>
<path d="M81.5295 23.8953H78.9638V25.8504H81.2758V26.5913H78.9638V28.5465H81.5295V29.308H78.2401V23.1338H81.5295V23.8953Z" fill="white" stroke="white" stroke-width="0.2" stroke-miterlimit="10"/>
<path d="M84.5838 29.308H83.8602V23.8953H82.2812V23.1338H86.1533V23.8953H84.5744V29.308H84.5838Z" fill="white" stroke="white" stroke-width="0.2" stroke-miterlimit="10"/>
<path d="M88.9635 29.308V23.1338H89.6871V29.308H88.9635Z" fill="white" stroke="white" stroke-width="0.2" stroke-miterlimit="10"/>
<path d="M92.9013 29.308H92.1776V23.8953H90.5987V23.1338H94.4708V23.8953H92.8919V29.308H92.9013Z" fill="white" stroke="white" stroke-width="0.2" stroke-miterlimit="10"/>
<path d="M101.811 28.5053C101.257 29.133 100.57 29.4418 99.7434 29.4418C98.9163 29.4418 98.2303 29.133 97.6758 28.5053C97.1213 27.8776 96.8487 27.1161 96.8487 26.2209C96.8487 25.3256 97.1213 24.5538 97.6758 23.9364C98.2303 23.3087 98.9163 23 99.7434 23C100.561 23 101.247 23.3087 101.811 23.9364C102.365 24.5641 102.647 25.3256 102.647 26.2209C102.638 27.1264 102.365 27.8879 101.811 28.5053ZM98.2115 27.9908C98.625 28.4539 99.1419 28.6803 99.7434 28.6803C100.345 28.6803 100.862 28.4539 101.275 27.9908C101.689 27.5278 101.905 26.9412 101.905 26.2209C101.905 25.5006 101.698 24.914 101.275 24.4509C100.862 23.9879 100.345 23.7615 99.7434 23.7615C99.1419 23.7615 98.625 23.9879 98.2115 24.4509C97.7979 24.914 97.5818 25.5006 97.5818 26.2209C97.5818 26.9412 97.7979 27.5278 98.2115 27.9908Z" fill="white" stroke="white" stroke-width="0.2" stroke-miterlimit="10"/>
<path d="M103.662 29.308V23.1338H104.546L107.29 27.9394H107.318L107.29 26.7457V23.1338H108.014V29.308H107.262L104.395 24.276H104.367L104.395 25.4697V29.308H103.662Z" fill="white" stroke="white" stroke-width="0.2" stroke-miterlimit="10"/>
<path d="M96.6699 38.3121C94.4613 38.3121 92.6569 40.154 92.6569 42.6855C92.6569 45.2066 94.4613 47.0589 96.6699 47.0589C98.8785 47.0589 100.683 45.2066 100.683 42.6855C100.683 40.154 98.8785 38.3121 96.6699 38.3121ZM96.6699 45.3404C95.4576 45.3404 94.4143 44.2496 94.4143 42.6855C94.4143 41.111 95.4576 40.0305 96.6699 40.0305C97.8823 40.0305 98.9255 41.111 98.9255 42.6855C98.9255 44.2496 97.8729 45.3404 96.6699 45.3404ZM87.9108 38.3121C85.7022 38.3121 83.8977 40.154 83.8977 42.6855C83.8977 45.2066 85.7022 47.0589 87.9108 47.0589C90.1194 47.0589 91.9238 45.2066 91.9238 42.6855C91.9238 40.154 90.1194 38.3121 87.9108 38.3121ZM87.9108 45.3404C86.6984 45.3404 85.6552 44.2496 85.6552 42.6855C85.6552 41.111 86.6984 40.0305 87.9108 40.0305C89.1231 40.0305 90.1663 41.111 90.1663 42.6855C90.1663 44.2496 89.1231 45.3404 87.9108 45.3404ZM77.4975 39.6601V41.5124H81.5576C81.4354 42.5517 81.1158 43.3235 80.6365 43.8483C80.0444 44.4966 79.1234 45.2066 77.5069 45.2066C75.007 45.2066 73.0521 43.0045 73.0521 40.2672C73.0521 37.53 75.007 35.3279 77.5069 35.3279C78.8509 35.3279 79.8377 35.9041 80.5613 36.6553L81.7549 35.3484C80.7399 34.2885 79.396 33.4756 77.4975 33.4756C74.0765 33.4756 71.2007 36.5215 71.2007 40.2775C71.2007 44.0232 74.0765 47.0794 77.4975 47.0794C79.349 47.0794 80.7399 46.4209 81.8301 45.1757C82.9485 43.9512 83.2962 42.2224 83.2962 40.8332C83.2962 40.401 83.268 39.9997 83.2022 39.6704H77.4975V39.6601ZM120.081 41.1007C119.752 40.1232 118.737 38.3121 116.66 38.3121C114.602 38.3121 112.891 40.082 112.891 42.6855C112.891 45.1346 114.583 47.0589 116.857 47.0589C118.69 47.0589 119.752 45.8343 120.184 45.1243L118.822 44.1261C118.37 44.8567 117.75 45.3404 116.857 45.3404C115.965 45.3404 115.325 44.8876 114.921 44.0129L120.269 41.5947L120.081 41.1007ZM114.63 42.562C114.583 40.8744 115.824 40.01 116.716 40.01C117.412 40.01 118.004 40.3907 118.201 40.9361L114.63 42.562ZM110.288 46.8016H112.045V33.9387H110.288V46.8016ZM107.412 39.2896H107.346C106.952 38.7751 106.2 38.3121 105.241 38.3121C103.239 38.3121 101.407 40.2364 101.407 42.706C101.407 45.1551 103.239 47.0691 105.241 47.0691C106.19 47.0691 106.952 46.6061 107.346 46.071H107.403V46.6987C107.403 48.376 106.585 49.2713 105.269 49.2713C104.198 49.2713 103.531 48.4275 103.258 47.7174L101.726 48.4172C102.168 49.58 103.333 51.0001 105.269 51.0001C107.328 51.0001 109.066 49.6726 109.066 46.4414V38.5796H107.403V39.2896H107.412ZM105.392 45.3404C104.179 45.3404 103.164 44.229 103.164 42.706C103.164 41.1625 104.179 40.0408 105.392 40.0408C106.585 40.0408 107.525 41.1728 107.525 42.706C107.534 44.229 106.594 45.3404 105.392 45.3404ZM128.314 33.9387H124.113V46.8016H125.87V41.924H128.323C130.269 41.924 132.177 40.3804 132.177 37.9313C132.177 35.4822 130.25 33.9387 128.314 33.9387ZM128.351 40.1334H125.861V35.7189H128.351C129.667 35.7189 130.41 36.9126 130.41 37.921C130.41 38.9295 129.667 40.1334 128.351 40.1334ZM139.197 38.2915C137.928 38.2915 136.612 38.9089 136.067 40.2569L137.627 40.967C137.956 40.2569 138.577 40.0203 139.225 40.0203C140.127 40.0203 141.058 40.6171 141.067 41.677V41.8108C140.748 41.6153 140.071 41.3168 139.235 41.3168C137.552 41.3168 135.851 42.3253 135.851 44.2084C135.851 45.9269 137.223 47.0383 138.765 47.0383C139.939 47.0383 140.597 46.462 141.001 45.7828H141.058V46.781H142.75V41.8519C142.759 39.5675 141.199 38.2915 139.197 38.2915ZM138.981 45.3404C138.408 45.3404 137.609 45.0214 137.609 44.2496C137.609 43.2617 138.605 42.881 139.47 42.881C140.24 42.881 140.607 43.0662 141.067 43.3132C140.936 44.4966 139.996 45.3404 138.981 45.3404ZM148.924 38.5693L146.913 44.1467H146.857L144.77 38.5693H142.881L146.011 46.3694L144.225 50.7016H146.058L150.879 38.5693H148.924ZM133.135 46.8016H134.893V33.9387H133.135V46.8016Z" fill="white"/>
<path d="M42.4416 23.6892C42.169 24.0082 42.0093 24.5022 42.0093 25.1299V47.8921C42.0093 48.5301 42.169 49.0241 42.4416 49.3328L42.5074 49.4048L54.1518 36.6654V36.511V36.3566L42.5074 23.6172L42.4416 23.6892Z" fill="url(#paint0_linear_1_539)"/>
<path d="M58.0333 40.9155L54.1519 36.6656V36.5112V36.3569L58.0333 32.1069L58.1179 32.1584L62.7137 35.0191C64.0294 35.832 64.0294 37.1698 62.7137 37.993L58.1179 40.8537L58.0333 40.9155Z" fill="url(#paint1_linear_1_539)"/>
<path d="M58.1182 40.8538L54.1521 36.5112L42.4419 49.333C42.8742 49.8372 43.5885 49.899 44.3968 49.3948L58.1182 40.8538Z" fill="url(#paint2_linear_1_539)"/>
<path d="M58.1183 32.1685L44.3875 23.6275C43.5792 23.1233 42.8649 23.185 42.4326 23.6893L54.1522 36.511L58.1183 32.1685Z" fill="url(#paint3_linear_1_539)"/>
<path opacity="0.2" d="M58.034 40.7612L44.3878 49.2508C43.6265 49.7241 42.9404 49.6933 42.5081 49.2611L42.4423 49.3331L42.5081 49.4051C42.9498 49.8373 43.6265 49.8682 44.3878 49.3948L58.1186 40.8538L58.034 40.7612Z" fill="#2E3A59"/>
<path opacity="0.12" d="M42.442 49.1892C42.1695 48.8702 42.0097 48.3762 42.0097 47.7485V47.9029C42.0097 48.5409 42.1695 49.0348 42.442 49.3435L42.5078 49.2715L42.442 49.1892Z" fill="#2E3A59"/>
<path opacity="0.12" d="M62.7137 37.849L58.024 40.7611L58.1086 40.8538L62.7043 37.993C63.3622 37.5814 63.6911 37.0463 63.6911 36.5112C63.6442 36.9949 63.3152 37.4785 62.7137 37.849Z" fill="#2E3A59"/>
<path opacity="0.25" d="M44.3872 23.7719L62.7137 35.1736C63.3058 35.544 63.6442 36.0174 63.7006 36.5113C63.7006 35.9762 63.3716 35.4309 62.7137 35.0295L44.3872 23.6278C43.0714 22.8149 42 23.494 42 25.1405V25.2949C42 23.6381 43.0808 22.9589 44.3872 23.7719Z" fill="white"/>
</g>
<defs>
<filter id="filter0_d_1_539" x="-1.90735e-06" y="0" width="192.879" height="104" filterUnits="userSpaceOnUse" color-interpolation-filters="sRGB">
<feFlood flood-opacity="0" result="BackgroundImageFix"/>
<feColorMatrix in="SourceAlpha" type="matrix" values="0 0 0 0 0 0 0 0 0 0 0 0 0 0 0 0 0 0 127 0" result="hardAlpha"/>
<feOffset dy="15"/>
<feGaussianBlur stdDeviation="15"/>
<feComposite in2="hardAlpha" operator="out"/>
<feColorMatrix type="matrix" values="0 0 0 0 0.862745 0 0 0 0 0.909647 0 0 0 0 0.952941 0 0 0 0.25 0"/>
<feBlend mode="normal" in2="BackgroundImageFix" result="effect1_dropShadow_1_539"/>
<feBlend mode="normal" in="SourceGraphic" in2="effect1_dropShadow_1_539" result="shape"/>
</filter>
<linearGradient id="paint0_linear_1_539" x1="53.1177" y1="24.8929" x2="35.9188" y2="40.6008" gradientUnits="userSpaceOnUse">
<stop stop-color="#00A0FF"/>
<stop offset="0.00657445" stop-color="#00A1FF"/>
<stop offset="0.2601" stop-color="#00BEFF"/>
<stop offset="0.5122" stop-color="#00D2FF"/>
<stop offset="0.7604" stop-color="#00DFFF"/>
<stop offset="1" stop-color="#00E3FF"/>
</linearGradient>
<linearGradient id="paint1_linear_1_539" x1="64.4283" y1="36.5126" x2="41.6874" y2="36.5126" gradientUnits="userSpaceOnUse">
<stop stop-color="#FFE000"/>
<stop offset="0.4087" stop-color="#FFBD00"/>
<stop offset="0.7754" stop-color="#FFA500"/>
<stop offset="1" stop-color="#FF9C00"/>
</linearGradient>
<linearGradient id="paint2_linear_1_539" x1="55.9632" y1="38.874" x2="32.64" y2="60.1752" gradientUnits="userSpaceOnUse">
<stop stop-color="#FF3A44"/>
<stop offset="1" stop-color="#C31162"/>
</linearGradient>
<linearGradient id="paint3_linear_1_539" x1="39.4884" y1="16.1117" x2="49.9032" y2="25.6235" gradientUnits="userSpaceOnUse">
<stop stop-color="#32A071"/>
<stop offset="0.0685" stop-color="#2DA771"/>
<stop offset="0.4762" stop-color="#15CF74"/>
<stop offset="0.8009" stop-color="#06E775"/>
<stop offset="1" stop-color="#00F076"/>
</linearGradient>
</defs>
</svg>
